# xmcd
#
# Track frame offsets: 
#        150
#        11565
#        25387
#        38723
#        50180
#        62539
#        76351
#        89886
#        102289
#        115077
#        126354
#        138242
#        150086
#        163112
#        173372
#        183853
#        194777
#        205226
#        215746
#        228238
#        238702
#        252122
#        266000
#        278825
#        289929
#
# Disc length: 4051 seconds
#
# Revision: 0
# Processed by: cddbd v1.5.2PL0 Copyright (c) Steve Scherf et al.
# Submitted via: ExactAudioCopy v0.99pb5
#
DISCID=670fd119
DTITLE=Willie Dixon - The Big Three Trio
DYEAR=2008
DGENRE=Blues
TTITLE0=Big Three Boogie
TTITLE1=If the Sea Was Whiskey
TTITLE2=I Ain't Gonna Be Your Monkey Man
TTITLE3=88 Boogie
TTITLE4=Money Tree Blues
TTITLE5=Big Three Stomp
TTITLE6=Since My Baby Gone
TTITLE7=Hard Notch Boogie Beat
TTITLE8=No One to Love Me
TTITLE9=Don't Let That Music Die
TTITLE10=It's All Over Now
TTITLE11=Tell That Woman
TTITLE12=Got You On My Mind
TTITLE13=Etiquette
TTITLE14=You Don't Love Me No More
TTITLE15=Come Here Baby
TTITLE16=O.C. Bounce
TTITLE17=Cool Kind Woman Blues
TTITLE18=Juice Head Bartender
TTITLE19=What Am I To Do?
TTITLE20=Signifying Monkey
TTITLE21=Reno Blues
TTITLE22=Just Can't Let Her Be
TTITLE23=I'll Be Right Some Day
TTITLE24=After Awhile (We Gonna Drink Some Whiskey)
EXTD=
EXTT0=
EXTT1=
EXTT2=
EXTT3=
EXTT4=
EXTT5=
EXTT6=
EXTT7=
EXTT8=
EXTT9=
EXTT10=
EXTT11=
EXTT12=
EXTT13=
EXTT14=
EXTT15=
EXTT16=
EXTT17=
EXTT18=
EXTT19=
EXTT20=
EXTT21=
EXTT22=
EXTT23=
EXTT24=
PLAYORDER=
